<svg width="28" height="28" viewBox="0 0 28 28" fill="none" xmlns="http://www.w3.org/2000/svg">
<path d="M21.75 3C22.612 3 23.4386 3.34241 24.0481 3.9519C24.6576 4.5614 25 5.38805 25 6.25V21.75C25 22.612 24.6576 23.4386 24.0481 24.0481C23.4386 24.6576 22.612 25 21.75 25H6.25C5.38805 25 4.5614 24.6576 3.9519 24.0481C3.34241 23.4386 3 22.612 3 21.75V6.25C3 5.38805 3.34241 4.5614 3.9519 3.9519C4.5614 3.34241 5.38805 3 6.25 3H21.75ZM23.5 9.503H4.5V21.75C4.5 22.716 5.284 23.5 6.25 23.5H21.75C22.2141 23.5 22.6592 23.3156 22.9874 22.9874C23.3156 22.6592 23.5 22.2141 23.5 21.75V9.503ZM8.749 17.501C9.08052 17.501 9.39846 17.6327 9.63288 17.8671C9.8673 18.1015 9.999 18.4195 9.999 18.751C9.999 19.0825 9.8673 19.4005 9.63288 19.6349C9.39846 19.8693 9.08052 20.001 8.749 20.001C8.41748 20.001 8.09954 19.8693 7.86512 19.6349C7.6307 19.4005 7.499 19.0825 7.499 18.751C7.499 18.4195 7.6307 18.1015 7.86512 17.8671C8.09954 17.6327 8.41748 17.501 8.749 17.501ZM14.003 17.501C14.3345 17.501 14.6525 17.6327 14.8869 17.8671C15.1213 18.1015 15.253 18.4195 15.253 18.751C15.253 19.0825 15.1213 19.4005 14.8869 19.6349C14.6525 19.8693 14.3345 20.001 14.003 20.001C13.6715 20.001 13.3535 19.8693 13.1191 19.6349C12.8847 19.4005 12.753 19.0825 12.753 18.751C12.753 18.4195 12.8847 18.1015 13.1191 17.8671C13.3535 17.6327 13.6715 17.501 14.003 17.501ZM8.749 12.501C9.08052 12.501 9.39846 12.6327 9.63288 12.8671C9.8673 13.1015 9.999 13.4195 9.999 13.751C9.999 14.0825 9.8673 14.4005 9.63288 14.6349C9.39846 14.8693 9.08052 15.001 8.749 15.001C8.41748 15.001 8.09954 14.8693 7.86512 14.6349C7.6307 14.4005 7.499 14.0825 7.499 13.751C7.499 13.4195 7.6307 13.1015 7.86512 12.8671C8.09954 12.6327 8.41748 12.501 8.749 12.501ZM14.003 12.501C14.3345 12.501 14.6525 12.6327 14.8869 12.8671C15.1213 13.1015 15.253 13.4195 15.253 13.751C15.253 14.0825 15.1213 14.4005 14.8869 14.6349C14.6525 14.8693 14.3345 15.001 14.003 15.001C13.6715 15.001 13.3535 14.8693 13.1191 14.6349C12.8847 14.4005 12.753 14.0825 12.753 13.751C12.753 13.4195 12.8847 13.1015 13.1191 12.8671C13.3535 12.6327 13.6715 12.501 14.003 12.501ZM19.258 12.501C19.5895 12.501 19.9075 12.6327 20.1419 12.8671C20.3763 13.1015 20.508 13.4195 20.508 13.751C20.508 14.0825 20.3763 14.4005 20.1419 14.6349C19.9075 14.8693 19.5895 15.001 19.258 15.001C18.9265 15.001 18.6085 14.8693 18.3741 14.6349C18.1397 14.4005 18.008 14.0825 18.008 13.751C18.008 13.4195 18.1397 13.1015 18.3741 12.8671C18.6085 12.6327 18.9265 12.501 19.258 12.501ZM21.75 4.5H6.25C5.78587 4.5 5.34075 4.68437 5.01256 5.01256C4.68437 5.34075 4.5 5.78587 4.5 6.25V8.003H23.5V6.25C23.5 5.78587 23.3156 5.34075 22.9874 5.01256C22.6592 4.68437 22.2141 4.5 21.75 4.5Z" fill="#A20607"/>
</svg>
