<svg width="20" height="20" viewBox="0 0 20 20" fill="none" xmlns="http://www.w3.org/2000/svg">
<rect x="0.5" y="0.5" width="19" height="19" rx="9.5" fill="white"/>
<path d="M2 10C2 5.58172 5.58172 2 10 2C14.4183 2 18 5.58172 18 10C18 14.4183 14.4183 18 10 18C5.58172 18 2 14.4183 2 10Z" fill="#34B233"/>
<path d="M7.8318 11.4901C8.22301 11.8845 8.86079 11.8845 9.25197 11.49L14.3708 6.32751C14.6409 6.05519 15.0811 6.0551 15.3512 6.32731C15.6183 6.59644 15.6184 7.03059 15.3514 7.29982L9.25197 13.4505C8.86078 13.845 8.22303 13.845 7.83184 13.4505L4.64895 10.2409C4.38212 9.9718 4.38212 9.53792 4.64895 9.26885C4.91895 8.99657 5.35913 8.99657 5.62914 9.26885L7.8318 11.4901Z" fill="white"/>
<rect x="0.5" y="0.5" width="19" height="19" rx="9.5" stroke="#34B233"/>
</svg>
