<svg width="24" height="25" viewBox="0 0 24 25" fill="none" xmlns="http://www.w3.org/2000/svg">
<path d="M10.6568 8.70398C10.5324 8.83776 10.4288 8.98846 10.3483 9.15084L9.53885 8.98453C9.66471 8.66035 9.85013 8.36299 10.0859 8.10935C10.4333 7.73568 10.8757 7.47232 11.3606 7.34807C11.8455 7.22385 12.3547 7.24336 12.8294 7.40452C13.3043 7.56573 13.7266 7.86254 14.0462 8.26226C14.3658 8.66209 14.5691 9.14815 14.631 9.66413C14.6929 10.1801 14.6105 10.7032 14.3942 11.172C14.1779 11.6408 13.8371 12.035 13.4132 12.3103C12.9894 12.5854 12.4994 12.7308 12 12.7308H12H11.6V11.8846H12H12C12.3531 11.8846 12.698 11.7817 12.9944 11.5892C13.2907 11.3968 13.5259 11.1232 13.6742 10.8017C13.8225 10.4803 13.8784 10.1231 13.8363 9.77138C13.7941 9.41963 13.6552 9.08609 13.4344 8.80985C13.2135 8.5335 12.9192 8.32555 12.5848 8.21205C12.2503 8.0985 11.8908 8.08465 11.5487 8.17229C11.2067 8.25991 10.8976 8.44493 10.6568 8.70398ZM19.2 17.4231H19.7V16.9231V5.84615V5.34615H19.2H4.8H4.3V5.84615V18.2015V19.2465L5.11371 18.5909L6.56307 17.4231H19.2ZM7.0095 18.2692H6.83312L6.69578 18.3799L3.5 20.955V4.92308C3.5 4.80684 3.54514 4.69784 3.6216 4.61941C3.69765 4.54142 3.79806 4.5 3.9 4.5H20.1C20.2019 4.5 20.3024 4.54142 20.3784 4.61941C20.4549 4.69784 20.5 4.80684 20.5 4.92308V17.8462C20.5 17.9624 20.4549 18.0714 20.3784 18.1498C20.3024 18.2278 20.2019 18.2692 20.1 18.2692H7.0095ZM12.4 14.6538V15.5H11.6V14.6538H12.4Z" stroke="#A70507"/>
</svg>
