<svg width="24" height="25" viewBox="0 0 24 25" fill="none" xmlns="http://www.w3.org/2000/svg">
<path d="M12 3C16.9707 3 21 7.0291 21 11.9995C21 16.97 16.9707 20.9991 12 20.9991C10.5636 21.0011 9.14774 20.6579 7.87171 19.9983L4.42831 20.9586C4.23619 21.0122 4.03328 21.0138 3.84036 20.9632C3.64744 20.9125 3.47144 20.8115 3.33041 20.6705C3.18937 20.5295 3.08837 20.3535 3.03774 20.1606C2.98712 19.9677 2.98869 19.7648 3.04231 19.5727L4.00351 16.1321C3.34232 14.855 2.99814 13.4376 3.00001 11.9995C3.00001 7.0291 7.02931 3 12 3ZM12 4.34993C9.9711 4.34993 8.02529 5.15587 6.59064 6.59045C5.15599 8.02503 4.35001 9.97074 4.35001 11.9995C4.35001 13.3225 4.68571 14.5941 5.31571 15.7227L5.45071 15.9656L4.44991 19.5511L8.03821 18.5503L8.28121 18.6853C9.30215 19.2529 10.4395 19.5792 11.6061 19.6391C12.7727 19.699 13.9375 19.491 15.0113 19.031C16.085 18.571 17.0391 17.8712 17.8005 16.9853C18.5618 16.0994 19.1101 15.0509 19.4035 13.9203C19.6968 12.7896 19.7272 11.6068 19.4925 10.4626C19.2578 9.31834 18.7642 8.24303 18.0495 7.31912C17.3348 6.39521 16.4179 5.64723 15.3693 5.13255C14.3207 4.61787 13.1681 4.35016 12 4.34993ZM12 15.1494C12.2387 15.1494 12.4676 15.2442 12.6364 15.413C12.8052 15.5818 12.9 15.8107 12.9 16.0493C12.9 16.288 12.8052 16.5169 12.6364 16.6857C12.4676 16.8545 12.2387 16.9493 12 16.9493C11.7613 16.9493 11.5324 16.8545 11.3636 16.6857C11.1948 16.5169 11.1 16.288 11.1 16.0493C11.1 15.8107 11.1948 15.5818 11.3636 15.413C11.5324 15.2442 11.7613 15.1494 12 15.1494ZM12 7.27478C12.6564 7.27478 13.2859 7.53553 13.7501 7.99966C14.2142 8.46379 14.475 9.09328 14.475 9.74966C14.475 10.6586 14.2077 11.1662 13.5291 11.8727L13.377 12.0265C12.8172 12.5863 12.675 12.8239 12.675 13.3495C12.675 13.5285 12.6039 13.7002 12.4773 13.8268C12.3507 13.9533 12.179 14.0244 12 14.0244C11.821 14.0244 11.6493 13.9533 11.5227 13.8268C11.3961 13.7002 11.325 13.5285 11.325 13.3495C11.325 12.4405 11.5923 11.933 12.2709 11.2265L12.423 11.0726C12.9828 10.5128 13.125 10.2752 13.125 9.74966C13.1241 9.46192 13.0129 9.18548 12.8144 8.97719C12.6159 8.76889 12.3451 8.64459 12.0577 8.62983C11.7703 8.61508 11.4882 8.711 11.2694 8.89787C11.0506 9.08473 10.9117 9.34834 10.8813 9.63447L10.875 9.74966C10.875 9.92867 10.8039 10.1004 10.6773 10.2269C10.5507 10.3535 10.379 10.4246 10.2 10.4246C10.021 10.4246 9.8493 10.3535 9.72271 10.2269C9.59612 10.1004 9.52501 9.92867 9.52501 9.74966C9.52501 9.09328 9.78576 8.46379 10.2499 7.99966C10.7141 7.53553 11.3436 7.27478 12 7.27478Z" fill="#A70507"/>
</svg>
