<svg width="28" height="28" viewBox="0 0 28 28" fill="none" xmlns="http://www.w3.org/2000/svg">
<path d="M9.33333 2.33325C8.05 2.33325 7 3.38325 7 4.66659V8.36492C7 8.98325 7.245 9.57825 7.68833 10.0216L11.6667 13.9999L7.67667 17.9899C7.245 18.4333 7 19.0283 7 19.6466V23.3333C7 24.6166 8.05 25.6666 9.33333 25.6666H18.6667C19.95 25.6666 21 24.6166 21 23.3333V19.6466C21 19.0283 20.755 18.4333 20.3233 18.0016L16.3333 13.9999L20.3117 10.0333C20.755 9.58992 21 8.99492 21 8.37659V4.66659C21 3.38325 19.95 2.33325 18.6667 2.33325H9.33333ZM18.6667 19.2499V22.1666C18.6667 22.8083 18.1417 23.3333 17.5 23.3333H10.5C9.85833 23.3333 9.33333 22.8083 9.33333 22.1666V19.2499L14 14.5833L18.6667 19.2499ZM14 13.4166L9.33333 8.74992V5.83325C9.33333 5.19159 9.85833 4.66659 10.5 4.66659H17.5C18.1417 4.66659 18.6667 5.19159 18.6667 5.83325V8.74992L14 13.4166Z" fill="#A30608"/>
</svg>
