<svg width="30" height="30" viewBox="0 0 30 30" fill="none" xmlns="http://www.w3.org/2000/svg">
<path d="M16.25 2.5376V5.0626C21.7375 5.7376 25.625 10.7251 24.95 16.2126C24.375 20.7626 20.8 24.3751 16.25 24.9126V27.4126C23.125 26.7251 28.125 20.6251 27.4375 13.7501C26.875 7.8126 22.1625 3.1251 16.25 2.5376V2.5376ZM13.75 2.5751C11.3125 2.8126 8.9875 3.7501 7.0875 5.3251L8.875 7.1751C10.275 6.0501 11.9625 5.3251 13.75 5.0751V2.5751V2.5751ZM5.325 7.0876C3.76207 8.98428 2.80025 11.304 2.5625 13.7501H5.0625C5.3 11.9751 6 10.2876 7.1125 8.8751L5.325 7.0876ZM2.575 16.2501C2.825 18.7001 3.7875 21.0126 5.3375 22.9126L7.1125 21.1251C6.00866 19.7121 5.30494 18.0283 5.075 16.2501H2.575V16.2501ZM8.875 22.9626L7.0875 24.6751C8.98097 26.2535 11.2991 27.2364 13.75 27.5001V25.0001C11.9718 24.7702 10.288 24.0664 8.875 22.9626V22.9626ZM15.625 8.7501V15.3126L21.25 18.6501L20.3125 20.1876L13.75 16.2501V8.7501H15.625Z" fill="#A61C1C"/>
</svg>
