<svg width="28" height="29" viewBox="0 0 28 29" fill="none" xmlns="http://www.w3.org/2000/svg">
<path d="M14.0029 9.7915C13.0747 9.7915 12.1844 10.1603 11.5281 10.8166C10.8717 11.473 10.5029 12.3632 10.5029 13.2915C10.5029 14.2198 10.8717 15.11 11.5281 15.7664C12.1844 16.4228 13.0747 16.7915 14.0029 16.7915C14.9312 16.7915 15.8214 16.4228 16.4778 15.7664C17.1342 15.11 17.5029 14.2198 17.5029 13.2915C17.5029 12.3632 17.1342 11.473 16.4778 10.8166C15.8214 10.1603 14.9312 9.7915 14.0029 9.7915ZM11.9613 13.2915C11.9613 12.75 12.1764 12.2307 12.5593 11.8478C12.9421 11.4649 13.4614 11.2498 14.0029 11.2498C14.5444 11.2498 15.0637 11.4649 15.4466 11.8478C15.8295 12.2307 16.0446 12.75 16.0446 13.2915C16.0446 13.833 15.8295 14.3523 15.4466 14.7352C15.0637 15.1181 14.5444 15.3332 14.0029 15.3332C13.4614 15.3332 12.9421 15.1181 12.5593 14.7352C12.1764 14.3523 11.9613 13.833 11.9613 13.2915Z" fill="#FE9963"/>
<path d="M21.5835 19.4166L15.6988 25.6641C15.4807 25.8957 15.2175 26.0803 14.9253 26.2065C14.6332 26.3327 14.3184 26.3977 14.0002 26.3977C13.682 26.3977 13.3671 26.3327 13.075 26.2065C12.7829 26.0803 12.5197 25.8957 12.3015 25.6641L6.41684 19.4166H6.43901L6.42909 19.4049L6.41684 19.3903C4.90642 17.604 4.0795 15.3392 4.08351 12.9999C4.08351 7.523 8.52326 3.08325 14.0002 3.08325C19.4771 3.08325 23.9168 7.523 23.9168 12.9999C23.9209 15.3392 23.0939 17.604 21.5835 19.3903L21.5713 19.4049L21.5613 19.4166H21.5835ZM20.4501 18.4722C21.7498 16.9454 22.462 15.005 22.4585 12.9999C22.4585 8.32858 18.6715 4.54159 14.0002 4.54159C9.32884 4.54159 5.54184 8.32858 5.54184 12.9999C5.54184 15.0883 6.29668 16.9969 7.55026 18.4722L7.72993 18.6839L13.3632 24.6637C13.445 24.7505 13.5437 24.8198 13.6532 24.8671C13.7628 24.9144 13.8809 24.9388 14.0002 24.9388C14.1195 24.9388 14.2376 24.9144 14.3471 24.8671C14.4567 24.8198 14.5554 24.7505 14.6372 24.6637L20.2704 18.6839L20.4501 18.4722Z" fill="#FE9963"/>
</svg>
