<svg width="33" height="33" viewBox="0 0 33 33" fill="none" xmlns="http://www.w3.org/2000/svg">
<rect width="33" height="33" rx="16.5" fill="#A70507"/>
<path d="M10.3522 25.029H18.4652C18.8237 25.0286 19.1674 24.8928 19.4209 24.6514C19.6744 24.41 19.817 24.0826 19.8173 23.7412V21.8095H18.4652V23.7412H10.3522V8.28778H18.4652V10.2195H19.8173V8.28778C19.817 7.94635 19.6744 7.61899 19.4209 7.37756C19.1674 7.13613 18.8237 7.00034 18.4652 7H10.3522C9.99366 7.00034 9.64994 7.13613 9.39644 7.37756C9.14293 7.61899 9.00036 7.94635 9 8.28778V23.7412C9.00036 24.0826 9.14293 24.41 9.39644 24.6514C9.64994 24.8928 9.99366 25.0286 10.3522 25.029Z" fill="white"/>
<path d="M19.6744 19.4591L22.0689 16.7653H12.6057V15.2629H22.0689L19.6744 12.569L20.6185 11.5068L24.625 16.0141L20.6185 20.5213L19.6744 19.4591Z" fill="white"/>
</svg>
