<svg xmlns="http://www.w3.org/2000/svg" viewBox="0 0 256 256"><path fill="#2e348e" d="M13.2 173.4h14.82l16.26-30.63v30.36l22.01.27 17.25-31.85-.22 32.07 13.38.17.11-65.2-13.71.22-24.06 46.23.17-46.95-15.93.28L13.2 173.4zM124.68 142.49v-6.41h-20.9v37.71h20.9v-6.41h-14.43v-9.96h14.43v-6.41h-14.43v-8.52h14.43z"/><path fill="#ee1f24" d="M214.93 142.49v-6.41h-20.9v37.71h20.9v-6.41H200.5v-9.96h14.43v-6.41H200.5v-8.52h14.43zM221.9 136.08v37.71h20.9v-6.41h-14.43v-31.3h-6.47z"/><path d="M158.54 164.5a14 14 0 01-11.54 6.63c-8.08 0-14.66-7.66-14.66-17.08S138.89 137 147 137c4.87 0 9.19 2.8 11.85 7.08h3c-3-5.82-8.55-9.74-14.89-9.74-9.55 0-17.31 8.86-17.31 19.75s7.76 19.74 17.31 19.74c6.18 0 11.59-3.72 14.66-9.29z" fill="#2e348e"/><path fill="#ee1f24" d="M204.42 109.42h-53.53v14.6h19.47v49.77h14.6v-49.77h19.46v-14.6z"/><circle cx="126.18" cy="102.4" r="20.18" fill="#b2b2b2"/><path d="M124.36 105.12l.25 11 10.18-.66-3-3.9s24.55-20.35 20.58-28.11c-1.49-2.93-13.16.1-13.16.1s8.51-.66 9.3 1.56C151 92.43 128 108.25 128 108.25l-3.6-3.13" fill="#2e348e"/><path d="M128.45 100.9l-.25-11-10.2.63 3 3.9s-24.55 20.35-20.58 28.1c1.49 2.93 13.16-.09 13.16-.09s-8.52.66-9.3-1.56c-2.57-7.29 20.51-23.1 20.51-23.1l3.6 3.12" fill="#ee1f24"/></svg>