<svg data-name="Layer 1" xmlns="http://www.w3.org/2000/svg" viewBox="0 0 256 256"><path d="M135.14 147.46h-12.43v-35.84l-.55-.3c-6.25 6.73-12.49 13.47-18.93 20.42l-19.17-20.8v36.5H71.38V84c2.63-.74 4.52-.07 6.41 2.15 8.3 9.76 16.81 19.35 25.42 29.21 3.85-4.37 7.63-8.63 11.38-12.92 4.89-5.57 9.85-11.08 14.58-16.79 1.7-2 3.6-2.08 6-1.76zM145.56 147.59V83.76h2.59c9.44 0 18.89-.07 28.33 0a28.65 28.65 0 017.13 1c7.46 2 11.55 6.74 12.18 14.4a30.9 30.9 0 01-.67 9.35c-1.83 7.9-8.32 12.47-17.27 12.54h-19.61v24.39c0 1.53-.4 2.17-2 2.12-3.47-.04-6.93.03-10.68.03zm12.85-38.39a2.16 2.16 0 00.57.21c6.13 0 12.26.06 18.39 0 3.94 0 6.69-2.41 6.89-5.93.25-4.49-2.09-7.86-6.13-8-6.51-.25-13-.07-19.72-.07zM222 147.59V95.47h-21.6V83.9H256v11.37h-21.41c-.06 1.18-.15 2.11-.15 3v43.64c0 5.64 0 5.64-5.77 5.64z"/><path d="M158.41 109.2V95.44c6.69 0 13.21-.18 19.72.07 4 .15 6.38 3.53 6.13 8-.2 3.52-2.95 5.92-6.89 5.93h-18.39a2.16 2.16 0 01-.57-.24z" fill="#fff"/><path d="M53.28 181.17c-4.61-7.7-9.28-15.39-13.79-23.17a2.83 2.83 0 00-2.86-1.63c-4.17.07-8.34 0-13 0 1.44-2.57 2.61-4.75 3.86-6.87 6.07-10.34 12.11-20.68 18.26-31 1.18-2 1.46-3.47.12-5.61C41.24 105.62 37 98 32.45 90.64a27.62 27.62 0 01-1.57-2.87 27.91 27.91 0 011.49-2.56c2.09-3.23 3.89-6.65 6.05-10.38 2.5 4.2 4.78 8 7 11.86 5.32 8.92 10.58 17.88 15.88 26.78a3.75 3.75 0 01-.08 4.52c-4.7 7.68-9.07 15.56-13.81 23.22-1.34 2.16-.63 4-.25 6 2.14 11 4.35 22 6.52 33a5.12 5.12 0 010 1z" fill="#094da3"/><path d="M23.59 156.43c1.44-2.58 2.61-4.75 3.86-6.87s2.47-4.22 3.71-6.33c-.72-1.19-1.39-2.25-1.59-2.59-4.53-7.4-8.79-15-13.38-22.35-1.34-2.14-1.06-3.64.12-5.61 5.29-8.85 15.9-27.24 16.05-27.47 2.09-3.22 3.89-6.63 6-10.36h-13c-.65 0-19.89 30.73-24.59 38.41a3.75 3.75 0 00-.08 4.52C6 126.71 21.1 152.25 23.6 156.45z" fill="#ffc60e"/></svg>