<svg data-name="Layer 1" xmlns="http://www.w3.org/2000/svg" viewBox="0 0 256 256"><g fill="#f78534"><path d="M89.34 116.12H99.4c.37 0 .77-.09 1.13.26a6.36 6.36 0 01-.32.64c-1.72 2.66-3.46 5.32-5.19 8-.26.41-.49.85-.76 1.26a1 1 0 01-1.08.44 7.38 7.38 0 00-1.25-.06H71.26c-.59 0-1.18.11-1.77.13a11.16 11.16 0 01-1.2-.07 9.28 9.28 0 01.44-1q21.54-37.27 43.07-74.53h.2a.19.19 0 01.09.05.27.27 0 01.08.07 4.15 4.15 0 01.24.34L155.28 126c.08.15.14.31.22.49a2.21 2.21 0 01-1.61.31 12 12 0 00-1.45-.13H102.8c-.45 0-.9.06-1.35.06a8.68 8.68 0 01-1-.13c.53-1 1-1.77 1.43-2.58q2-3.54 4.06-7.08c1-1.69 2-3.37 3-5.06s2-3.51 3-5.26c1.1-1.91 2.22-3.8 3.32-5.7.72-1.24 1.41-2.49 2.13-3.73.31-.53.66-1 1.15-1.84.15.33.19.46.26.58 2.21 3.85 4.4 7.7 6.64 11.53a1.17 1.17 0 010 1.41c-1.2 2-2.34 4.05-3.49 6.09-.19.33-.34.68-.51 1 .81.2 11.86.24 13 0-.11-.71-2.33-4.67-5.42-9.82-1.94-3.23-3.78-6.53-5.66-9.79s-3.74-6.55-5.64-9.8S114 80.11 112.1 77a1.56 1.56 0 00-.24 0h-.09c-.3.47-.62.92-.9 1.4l-21.48 37.31a1.52 1.52 0 00-.05.41zM144.1 76.73c-.75 1.27-1.47 2.47-2.16 3.67s-1.38 2.51-2.14 3.72a21 21 0 01-2.26 3.59c-.79-1.32-1.52-2.5-2.21-3.7-1.54-2.66-3.05-5.33-4.62-8a1.56 1.56 0 010-1.82c1.86-3.16 3.66-6.35 5.5-9.52 1.66-2.87 3.34-5.73 5-8.59q1.29-2.22 2.56-4.44c.1-.17.23-.33.44-.65l43.63 75.53c-.42.49-1 .27-1.46.27-.76 0-1.52-.14-2.29-.14H163a1.84 1.84 0 01-1.83-1.07c-.37-.67-.83-1.29-1.25-1.93l-4.12-6.32c-.2-.31-.53-.58-.28-1.16a27.24 27.24 0 012.73 0h8.61a6.74 6.74 0 00-.81-1.75q-3.72-6.43-7.46-12.85c-2.16-3.71-4.33-7.41-6.48-11.13-1.76-3.05-3.49-6.12-5.24-9.18-.75-1.31-1.51-2.6-2.28-3.89a7.24 7.24 0 00-.49-.64zM67.37 158.13c.3-.38.55-.71.81-1a15.23 15.23 0 017.15-5.13 13.57 13.57 0 014-.65 19 19 0 016.69.93 12.07 12.07 0 014.46 2.86 13 13 0 013.44 6 29.89 29.89 0 01.79 4.2 38.1 38.1 0 01.22 4.28v22.2a9.63 9.63 0 01-4.13-.25 3.85 3.85 0 01-2.61-3 12 12 0 01-.2-2.07v-17.73a15.47 15.47 0 00-1.39-6.91 6.3 6.3 0 00-3.45-3.32 10.82 10.82 0 00-8.64.38 6.64 6.64 0 00-3.43 4.42 17.2 17.2 0 00-.69 5v21.93c0 1.66 0 1.61-1.63 1.57a14.51 14.51 0 01-2.28-.19c-2-.32-2.76-1.68-3-3.63a10.24 10.24 0 010-1.36v-17.52a14.9 14.9 0 00-1.77-7.35 7.44 7.44 0 00-6.28-3.92 11.12 11.12 0 00-3.54.24 7.15 7.15 0 00-5.2 4.89 14 14 0 00-.88 4.81v22.66c0 1.48 0 1.51-1.51 1.47a13 13 0 01-2.49-.25 3.61 3.61 0 01-2.63-2.34 6.84 6.84 0 01-.5-2.54c0-6.23-.06-12.46 0-18.68a17.39 17.39 0 013.63-10.92 14.69 14.69 0 018.61-5.4 19.46 19.46 0 016-.33 12.32 12.32 0 018.13 3.85c.64.69 1.15 1.49 1.72 2.24.23.15.37.32.6.56zM167.77 175.14a12.56 12.56 0 002.23 6.2 12 12 0 003.17 3 11.38 11.38 0 004.47 1.69 20.1 20.1 0 0010-1 14.45 14.45 0 004.39-2.6l.48-.36c.08.12.18.21.18.3a27.53 27.53 0 010 4 5.7 5.7 0 01-3.1 4.13 14.33 14.33 0 01-6 1.88c-1.43.12-2.86.15-4.28.22a17.27 17.27 0 01-6.37-1 16.77 16.77 0 01-7.65-5.3 18.92 18.92 0 01-3.94-8.11 21.08 21.08 0 01-.62-5.7 25.63 25.63 0 012.57-11.11c2.62-5 6.57-8.39 12.14-9.58a16.14 16.14 0 0112.39 2 13.78 13.78 0 015.65 6.55 16.2 16.2 0 01.86 3.32 13.05 13.05 0 01-.26 4.87 6.38 6.38 0 01-3.37 4.54 16.83 16.83 0 01-5.89 1.69c-5.22.75-10.47.26-15.7.41-.45-.03-.83-.04-1.35-.04zm.08-5.49H169l5.75-.18c2.55-.08 5.1-.1 7.63-.26a11.81 11.81 0 003.17-.63 2.67 2.67 0 002.13-3 8.05 8.05 0 00-.2-1.76 7.51 7.51 0 00-5.83-5.9 12.6 12.6 0 00-4.55-.28 10.6 10.6 0 00-6.81 3.89 12.58 12.58 0 00-1.72 3 9 9 0 00-.72 5.12zM99.76 198.84h3.3a7.08 7.08 0 002.07-.25 6.37 6.37 0 002-1.12 23.41 23.41 0 004.58-6.19 8.2 8.2 0 01.46-.82 1.38 1.38 0 000-1.73 95.63 95.63 0 01-5.92-10.84q-1.74-3.7-3.27-7.48c-1-2.39-1.89-4.81-2.69-7.26s-1.34-4.69-2-7c-.26-1-.47-2-.68-2.95-.07-.3-.1-.61-.16-1a3.82 3.82 0 01.78-.13 22.5 22.5 0 014.18.17 3.47 3.47 0 012.66 2.4c.47 1.39.83 2.81 1.21 4.22a97.77 97.77 0 004.86 14 88.51 88.51 0 004.09 8.36c.29.52.61 1 1 1.63.37-.63.75-1.15 1-1.73 1-2 2-4.06 2.9-6.16 1.41-3.45 2.78-6.93 4-10.45a68.55 68.55 0 002.71-9.56c.15-.78.29-1.57.43-2.36.06-.31.21-.54.54-.54 1.11 0 2.23.06 3.34.13 1.36.08 2.12 1.17 2.18 2.63a7.56 7.56 0 01-.23 2.17c-.62 2.36-1.26 4.71-2 7q-.8 2.61-1.79 5.14c-.89 2.28-1.78 4.56-2.82 6.77q-3.61 7.62-7.38 15.17a48.4 48.4 0 01-5.59 9.08c-1.8 2.23-3.88 4.15-6.87 4.63a7 7 0 01-5.43-.91 3.11 3.11 0 01-1.5-2.82c.07-.64.04-1.33.04-2.2zM144.67 152.05H157.46c.72 0 .86.14.84.89a20.53 20.53 0 01-.19 2.6 3 3 0 01-1.66 2.28 5.92 5.92 0 01-2.91.75h-8.18a.58.58 0 00-.67.63v19.4a11.24 11.24 0 00.61 3.8 5.27 5.27 0 005.11 3.63 16.08 16.08 0 004.38-.2c.7-.19 1.4-.41 2.09-.65.3-.1.57-.29.94 0a8.86 8.86 0 01-.46 4.46 3.67 3.67 0 01-1.74 1.88 9.78 9.78 0 01-4.21 1.09 18.65 18.65 0 01-6.18-.67 9.39 9.39 0 01-6.41-6.12 18.91 18.91 0 01-.91-4.17 44.38 44.38 0 01-.16-5.65v-23.07a11.34 11.34 0 011.33-5.44 7.66 7.66 0 013.3-3.1 3 3 0 011-.31c.94-.08 1.3-.06 1.29 1.06v5.67zM217.29 185.82a13.33 13.33 0 01-.19 3.88 3 3 0 01-1.72 1.86 6.62 6.62 0 01-2.84.6 19.15 19.15 0 01-5.69-.61 9.11 9.11 0 01-6.74-7.63 27 27 0 01-.41-4.67v-39.32c0-1.71.11-1.56 1.57-1.53a13.26 13.26 0 012.18.17 3.94 3.94 0 013.14 3.37 12.22 12.22 0 01.23 2.7v35.13a9 9 0 00.39 2.68 4.45 4.45 0 003.29 3.07 10.48 10.48 0 002.38.29c1.39.04 2.82.01 4.41.01z"/></g></svg>