<svg width="28" height="28" viewBox="0 0 28 28" fill="none" xmlns="http://www.w3.org/2000/svg">
<path d="M25.55 21.8789L25.2855 21.6456C24.5353 20.9772 23.8786 20.2107 23.3333 19.3667C22.7377 18.202 22.3807 16.9301 22.2833 15.6256V11.7834C22.2885 9.73442 21.5452 7.7541 20.1932 6.21448C18.8412 4.67487 16.9735 3.68195 14.9411 3.42228V2.41895C14.9411 2.14357 14.8317 1.87946 14.637 1.68474C14.4422 1.49001 14.1781 1.38062 13.9027 1.38062C13.6274 1.38062 13.3633 1.49001 13.1685 1.68474C12.9738 1.87946 12.8644 2.14357 12.8644 2.41895V3.43784C10.8502 3.71623 9.00506 4.71515 7.67083 6.24959C6.33659 7.78403 5.60365 9.75001 5.60775 11.7834V15.6256C5.51033 16.9301 5.15335 18.202 4.55775 19.3667C4.02177 20.2086 3.37568 20.975 2.63664 21.6456L2.37219 21.8789V24.0723H25.55V21.8789Z" fill="white"/>
<path d="M11.9155 24.8889C11.9837 25.3819 12.228 25.8336 12.6033 26.1605C12.9786 26.4875 13.4595 26.6676 13.9572 26.6676C14.4549 26.6676 14.9358 26.4875 15.3111 26.1605C15.6864 25.8336 15.9307 25.3819 15.9989 24.8889H11.9155Z" fill="white"/>
</svg>
