<svg data-name="Layer 1" xmlns="http://www.w3.org/2000/svg" viewBox="0 0 256 256"><path d="M179.83 99.33a28.92 28.92 0 018.82 1.38v16l-.44-.4a9.89 9.89 0 00-1.65-1.2 15.41 15.41 0 00-4.38-1.68 10.46 10.46 0 00-2.35-.27 14.2 14.2 0 00-5.73 1.15 14.53 14.53 0 00-7.77 7.72 14.75 14.75 0 000 11.42 14.51 14.51 0 007.77 7.73 14.2 14.2 0 005.73 1.15 14.61 14.61 0 0010.39-4.21 13.75 13.75 0 003.13-4.61 14.61 14.61 0 001.13-5.76v-24.42a28.81 28.81 0 11-14.65-4" fill="#e32528"/><path d="M186.05 134a9 9 0 01-2.8 1.87 8.59 8.59 0 01-6.84 0 8.79 8.79 0 01-4.68-4.66 8.41 8.41 0 010-6.81 8.89 8.89 0 014.68-4.66 8.65 8.65 0 016.84 0 9.07 9.07 0 012.8 1.88 8.92 8.92 0 011.88 2.78 8.52 8.52 0 010 6.81 9 9 0 01-1.88 2.79" fill="#e32528"/><path d="M194.48 127.79v-24.46a28.62 28.62 0 00-5.83-2.62v16l-.44-.4a9.33 9.33 0 00-1.65-1.19 14.8 14.8 0 00-2.08-1 16.08 16.08 0 00-2.3-.69 10.46 10.46 0 00-2.35-.27 14.2 14.2 0 00-5.73 1.15 14.53 14.53 0 00-7.77 7.72 14.75 14.75 0 000 11.42 14.51 14.51 0 007.77 7.73 14.2 14.2 0 005.73 1.15 14.62 14.62 0 005.74-1.12 14.44 14.44 0 004.65-3.09 13.75 13.75 0 003.13-4.61 14.44 14.44 0 001.13-5.76m-5.83 0a8.24 8.24 0 01-.72 3.4 8.81 8.81 0 01-1.88 2.78 9.07 9.07 0 01-2.8 1.88 8.59 8.59 0 01-6.84 0 9.19 9.19 0 01-2.8-1.88 9 9 0 01-1.88-2.78 8.52 8.52 0 010-6.81 9 9 0 011.88-2.78 9.37 9.37 0 012.8-1.88 8.65 8.65 0 016.84 0 9.25 9.25 0 012.8 1.88 8.81 8.81 0 011.88 2.78 8.21 8.21 0 01.72 3.41" fill="#fff"/><path d="M128 47.74a28.67 28.67 0 1028.8 28.67A28.74 28.74 0 00128 47.74" fill="#e32528"/><path d="M138.38 66.08a14.8 14.8 0 00-4.64-3.14 14.88 14.88 0 00-11.47 0 14.71 14.71 0 00-7.77 7.79 14.73 14.73 0 000 11.41 14.74 14.74 0 003.13 4.62 15 15 0 004.64 3.11 14.88 14.88 0 0011.47 0 15.06 15.06 0 004.64-3.11 14.88 14.88 0 003.12-4.62 14.73 14.73 0 000-11.41 15.26 15.26 0 00-3.12-4.65m-2.28 13.74a8.91 8.91 0 01-1.88 2.79 9.27 9.27 0 01-2.8 1.89 8.59 8.59 0 01-6.84 0 9.4 9.4 0 01-2.8-1.89 9.2 9.2 0 01-1.88-2.79 8.57 8.57 0 010-6.83 9.2 9.2 0 011.88-2.79 9.4 9.4 0 012.8-1.89 8.7 8.7 0 016.84 0 9.27 9.27 0 012.8 1.89 9 9 0 011.88 2.8 8.54 8.54 0 010 6.83" fill="#fff"/><path d="M179.83 47.74a28.67 28.67 0 1028.79 28.67 28.74 28.74 0 00-28.79-28.67" fill="#e32528"/><path d="M190.2 66.08a14.58 14.58 0 00-4.64-3.14 14.85 14.85 0 00-11.46 0 14.62 14.62 0 00-7.77 7.79 14.73 14.73 0 000 11.41 14.88 14.88 0 003.12 4.62 15.11 15.11 0 004.65 3.11 14.85 14.85 0 0011.46 0 14.51 14.51 0 007.77-7.73 14.73 14.73 0 000-11.41 15.11 15.11 0 00-3.13-4.65m-2.27 13.74a9.08 9.08 0 01-1.88 2.79 9.27 9.27 0 01-2.8 1.89 8.59 8.59 0 01-6.84 0 9.1 9.1 0 01-2.79-1.89 8.88 8.88 0 01-1.89-2.79 8.57 8.57 0 010-6.83 8.88 8.88 0 011.89-2.79 9.1 9.1 0 012.79-1.89 8.7 8.7 0 016.84 0 8.83 8.83 0 014.68 4.69 8.54 8.54 0 010 6.83" fill="#fff"/><path d="M76.18 150.93a28.67 28.67 0 100 57.33 28.67 28.67 0 100-57.33z" fill="#e32528"/><path d="M86.54 169.27a14.7 14.7 0 00-4.63-3.14 14.62 14.62 0 00-16.11 3.14 14.92 14.92 0 00-3.12 4.64 14.16 14.16 0 00-1.17 5.71 14.35 14.35 0 001.16 5.71 14.71 14.71 0 007.76 7.73 14.9 14.9 0 0011.48 0 14.78 14.78 0 007.77-7.73 14.75 14.75 0 000-11.42 15.32 15.32 0 00-3.14-4.64M84.28 183a9 9 0 01-4.69 4.68 8.56 8.56 0 01-3.41.7 8.45 8.45 0 01-3.43-.7A9.4 9.4 0 0170 185.8a9.51 9.51 0 01-1.93-2.8 8.57 8.57 0 010-6.83 9.56 9.56 0 011.88-2.8 9.37 9.37 0 012.8-1.88 8.45 8.45 0 013.43-.7 8.55 8.55 0 013.41.69 9.47 9.47 0 012.79 1.89 9 9 0 011.9 2.8 8.71 8.71 0 010 6.83" fill="#fff"/><path d="M128 150.93a28.67 28.67 0 100 57.33 28.67 28.67 0 100-57.33z" fill="#e32528"/><path d="M138.37 169.27a14.63 14.63 0 00-20.74 0 14.94 14.94 0 00-3.13 4.64 14.75 14.75 0 000 11.42 14.69 14.69 0 007.77 7.73 14.88 14.88 0 0011.47 0 14.62 14.62 0 007.76-7.73 14.75 14.75 0 000-11.42 14.94 14.94 0 00-3.13-4.64M136.1 183a9.14 9.14 0 01-1.88 2.79 9.27 9.27 0 01-2.8 1.89 8.61 8.61 0 01-3.42.7 8.44 8.44 0 01-3.42-.7 8.83 8.83 0 01-4.68-4.68 8.57 8.57 0 010-6.83 8.74 8.74 0 014.68-4.68 8.44 8.44 0 013.42-.7 8.6 8.6 0 013.42.69 9.65 9.65 0 012.8 1.89 9.07 9.07 0 011.88 2.8 8.54 8.54 0 010 6.83" fill="#fff"/><path d="M179.83 150.93a28.67 28.67 0 100 57.33 28.67 28.67 0 100-57.33zM76.18 47.74A28.67 28.67 0 10105 76.4a28.73 28.73 0 00-28.82-28.66" fill="#e32528"/><path d="M76.17 99.34A28.66 28.66 0 10105 128a28.72 28.72 0 00-28.8-28.66" fill="#e32528"/><path d="M82.43 121.7a9.18 9.18 0 011.89 2.78 8.67 8.67 0 01.56 1.88h5.91a14.13 14.13 0 00-1.08-4.19 14.65 14.65 0 00-7.71-7.72 14.34 14.34 0 00-5.75-1.16 14.61 14.61 0 00-5.73 1.13 14.87 14.87 0 00-4.66 3.09 14.29 14.29 0 00-3.12 4.61 14.61 14.61 0 00-1.13 5.76v13.86h5.79v-14.26a8.27 8.27 0 01.69-3A9 9 0 0170 121.7a9.1 9.1 0 012.79-1.89 8.76 8.76 0 016.85 0 9.35 9.35 0 012.79 1.89" fill="#fff"/><path d="M128 99.34A28.66 28.66 0 10156.8 128 28.73 28.73 0 00128 99.34" fill="#e32528"/><path d="M141.58 122.61a15.35 15.35 0 00-2.93-4.78 14.27 14.27 0 00-4.58-3.29 14.65 14.65 0 00-6.09-1.23 14.29 14.29 0 00-5.74 1.15 15.05 15.05 0 00-4.65 3.11 14.78 14.78 0 00-3.12 4.61 14.9 14.9 0 000 11.43 14.9 14.9 0 003.12 4.61 15.23 15.23 0 004.65 3.11 14.29 14.29 0 005.74 1.15 17.08 17.08 0 004.51-.62 13.45 13.45 0 007.61-5.44 17.35 17.35 0 002.33-4.89H136a8.43 8.43 0 01-3 3.7 9.08 9.08 0 01-11.13-1 9.32 9.32 0 01-1.87-2.63 7.86 7.86 0 01-.78-3.26v-.27h23.52a16.69 16.69 0 00-1.1-5.46m-21.36.46l.25-.39c1.42-2.32 4-3.56 7.55-3.67 3.51 0 6 1.28 7.46 3.68l.23.38z" fill="#fff"/></svg>