<svg width="26" height="26" viewBox="0 0 26 26" fill="none" xmlns="http://www.w3.org/2000/svg">
<path d="M12.1875 18.6875V19.5C12.1875 19.7155 12.1019 19.9222 11.9495 20.0745C11.7972 20.2269 11.5905 20.3125 11.375 20.3125H9.75V21.125C9.75 21.556 9.57879 21.9693 9.27405 22.274C8.9693 22.5788 8.55598 22.75 8.125 22.75H4.875C4.44402 22.75 4.0307 22.5788 3.72595 22.274C3.4212 21.9693 3.25 21.556 3.25 21.125V19.0239C3.25009 18.5929 3.42136 18.1797 3.72612 17.875L10.0133 11.5871C9.62749 10.2778 9.66367 8.8803 10.1167 7.59275C10.5697 6.30519 11.4165 5.19291 12.5371 4.4136C13.6576 3.6343 14.9951 3.22753 16.3598 3.25096C17.7246 3.27439 19.0473 3.72684 20.1404 4.54415C21.2336 5.36146 22.0417 6.50215 22.4503 7.8045C22.8588 9.10685 22.847 10.5048 22.4165 11.8C21.986 13.0953 21.1587 14.2222 20.0519 15.0209C18.9451 15.8196 17.6149 16.2496 16.25 16.25H14.625V17.875C14.625 18.0905 14.5394 18.2972 14.387 18.4495C14.2347 18.6019 14.028 18.6875 13.8125 18.6875H12.1875ZM17.875 9.75C18.306 9.75 18.7193 9.57879 19.024 9.27405C19.3288 8.9693 19.5 8.55598 19.5 8.125C19.5 7.69402 19.3288 7.2807 19.024 6.97595C18.7193 6.67121 18.306 6.5 17.875 6.5C17.444 6.5 17.0307 6.67121 16.726 6.97595C16.4212 7.2807 16.25 7.69402 16.25 8.125C16.25 8.55598 16.4212 8.9693 16.726 9.27405C17.0307 9.57879 17.444 9.75 17.875 9.75Z" fill="#A70507"/>
</svg>
