<svg width="26" height="26" viewBox="0 0 26 26" fill="none" xmlns="http://www.w3.org/2000/svg">
<path d="M18.2009 0.638672H7.79913C6.80363 0.638672 6.00003 1.44588 6.00003 2.43957V23.5621C6.00003 24.5548 6.80363 25.3611 7.79913 25.3611H18.2009C19.1946 25.3611 20 24.5548 20 23.5621V2.43957C20 1.44588 19.1946 0.638672 18.2009 0.638672ZM10.4334 1.73236H15.5685C15.6982 1.73236 15.8036 1.92606 15.8036 2.1657C15.8036 2.40534 15.6982 2.59993 15.5685 2.59993H10.4334C10.3027 2.59993 10.1991 2.40534 10.1991 2.1657C10.1991 1.92606 10.3027 1.73236 10.4334 1.73236ZM13.0009 23.5837C12.3676 23.5837 11.8523 23.0684 11.8523 22.4341C11.8523 21.7999 12.3676 21.2864 13.0009 21.2864C13.6324 21.2864 14.1478 21.7999 14.1478 22.4341C14.1478 23.0684 13.6324 23.5837 13.0009 23.5837ZM18.6523 19.6476H7.34868V3.6774H18.6523V19.6476Z" fill="#A70507"/>
</svg>
