<svg width="80" height="80" viewBox="0 0 80 80" fill="none" xmlns="http://www.w3.org/2000/svg">
<circle cx="40" cy="40" r="40" fill="#FBFBFB"/>
<path d="M35.2522 23.6088C33.1318 25.1866 32.5621 27.6847 32.6665 29.014C32.8 30.6398 33.1298 32.756 33.1298 32.756C33.1298 32.756 32.4765 33.1107 32.4765 34.5382C32.704 38.1215 33.9019 36.5751 34.1482 38.1466C34.7409 41.9323 36.0953 41.2582 36.0953 43.3243C36.0953 46.7657 34.6762 48.3747 30.2456 50.2822C25.8004 52.198 21.2174 54.6085 21.2174 58.7824V60.8694H58.7826V58.7824C58.7826 54.6085 54.1976 52.1981 49.7503 50.2843C45.3197 48.3768 43.9047 46.7699 43.9047 43.3264C43.9047 41.2603 45.255 41.9344 45.8498 38.1487C46.0981 36.5772 47.2939 38.1236 47.5256 34.5403C47.5256 33.1128 46.8703 32.758 46.8703 32.758C46.8703 32.758 47.2 30.6419 47.3315 29.0161C47.4671 27.3111 46.5009 23.6714 42.5315 22.5549C41.8365 21.8453 41.367 20.7163 43.504 19.5831C38.8292 19.364 37.7419 21.8099 35.2522 23.6088Z" fill="#D1D1D6"/>
</svg>
