<svg width="20" height="20" viewBox="0 0 20 20" fill="none" xmlns="http://www.w3.org/2000/svg">
<g clip-path="url(#clip0)">
<path d="M12.6663 0C12.4823 0 12.333 0.149336 12.333 0.33332C12.333 0.517304 12.4823 0.666639 12.6663 0.666639C16.3423 0.666639 19.333 3.6573 19.333 7.33331C19.333 7.51729 19.4823 7.66663 19.6663 7.66663C19.8506 7.66663 19.9996 7.51729 19.9996 7.33331C19.9996 3.28968 16.71 0 12.6663 0Z" fill="black"/>
<path d="M12.6663 2C12.4823 2 12.333 2.14934 12.333 2.33332C12.333 2.5173 12.4823 2.66664 12.6663 2.66664C15.2396 2.66664 17.333 4.75996 17.333 7.33331C17.333 7.51729 17.4823 7.66663 17.6663 7.66663C17.8507 7.66663 17.9996 7.51729 17.9996 7.33331C17.9996 4.39269 15.6073 2 12.6663 2Z" fill="black"/>
<path d="M12.6663 4C12.4823 4 12.333 4.14934 12.333 4.33332C12.333 4.5173 12.4823 4.66664 12.6663 4.66664C14.1367 4.66664 15.333 5.86297 15.333 7.33331C15.333 7.5173 15.4823 7.66663 15.6663 7.66663C15.8507 7.66663 15.9996 7.5173 15.9996 7.33331C15.9996 5.49535 14.5043 4 12.6663 4Z" fill="black"/>
<path d="M18.0376 12.5083C17.1306 12.389 16.2363 12.1663 15.3796 11.8473C14.55 11.5363 13.6073 11.737 12.9759 12.36L11.9223 13.4113C9.71293 12.1086 7.86727 10.2666 6.56161 8.06165L7.61594 7.00966C8.23926 6.38068 8.44059 5.439 8.12895 4.61134C7.8093 3.75603 7.58629 2.86369 7.46629 1.95533C7.30661 0.829321 6.33161 -0.00434961 5.19196 -1.36822e-05H2.27564C2.20763 -1.36822e-05 2.13962 0.00330662 2.07232 0.00932224C1.46662 0.0640096 0.918297 0.351001 0.528611 0.817016C0.138963 1.28334 -0.0457242 1.87334 0.00962724 2.48365C0.332634 5.51966 1.38263 8.47864 3.04431 11.0386C4.55298 13.408 6.60532 15.4563 8.97695 16.9603C11.5323 18.6143 14.4833 19.662 17.5176 19.991C17.5863 19.997 17.6553 19.9999 17.7246 19.9999C17.7266 19.9999 17.7286 19.9999 17.7309 19.9999C18.9869 19.9946 20.0042 18.9706 19.9992 17.7183V14.812C20.0256 13.6596 19.1842 12.6696 18.0376 12.5083ZM19.3326 14.8C19.3326 14.8026 19.3326 14.8056 19.3326 14.8083V17.72C19.3359 18.606 18.6163 19.3299 17.7286 19.3336C17.6766 19.3316 17.6266 19.3316 17.5826 19.3276C14.658 19.0103 11.8073 17.9983 9.33629 16.3989C7.0443 14.9453 5.06298 12.9679 3.60497 10.6779C1.99861 8.20333 0.984625 5.34533 0.672946 2.41834C0.634274 1.991 0.764626 1.57436 1.04029 1.24467C1.31595 0.914985 1.70361 0.712016 2.13228 0.673344C2.17994 0.669008 2.22763 0.666665 2.2756 0.666665H5.19493C5.20028 0.666665 5.20559 0.666665 5.21095 0.666665C6.00962 0.666665 6.69395 1.25834 6.80559 2.04565C6.93192 3.00064 7.16692 3.94264 7.50457 4.84564C7.72493 5.43095 7.58258 6.0963 7.14356 6.53931L5.90891 7.7713C5.80223 7.87763 5.78024 8.04165 5.85458 8.17231C7.26723 10.6523 9.32758 12.7083 11.8119 14.118C11.9426 14.1923 12.1059 14.1696 12.2119 14.064L13.4452 12.8333C13.8909 12.3937 14.5585 12.252 15.1459 12.472C16.0499 12.8087 16.9935 13.0437 17.9472 13.169C18.7572 13.283 19.3529 13.984 19.3326 14.8Z" fill="black"/>
<path d="M5.00004 1.33336H2.27571C2.2477 1.33336 2.22004 1.33469 2.19239 1.33734C1.85274 1.36801 1.64504 1.56066 1.55172 1.67234C1.47672 1.76199 1.3054 2.00668 1.3354 2.34269C1.46141 3.52503 1.68938 4.67535 2.01372 5.76202C2.05704 5.90636 2.18938 6.00003 2.33305 6.00003C2.36473 6.00003 2.39672 5.99569 2.42871 5.98605C2.60504 5.93339 2.70539 5.74773 2.6527 5.5714C2.34004 4.52406 2.12004 3.41406 1.99903 2.27773C1.99137 2.19308 2.04637 2.12008 2.06336 2.09941C2.09071 2.06676 2.15168 2.01043 2.27571 2.00008H4.99937C4.99973 2.00008 4.99972 2.00008 4.99972 2.00008C5.18371 2.00008 5.33304 1.85109 5.33304 1.66707C5.33336 1.48301 5.18402 1.33336 5.00004 1.33336Z" fill="black"/>
<path d="M18.333 14.6667C18.149 14.6667 17.9997 14.816 17.9997 15L17.9994 17.7196C17.9997 17.7946 17.971 17.8653 17.9187 17.9179C17.8663 17.9706 17.797 17.9996 17.731 17.9999L17.7004 17.9993C16.5614 17.8756 15.4607 17.6563 14.429 17.3473C14.2534 17.2943 14.0671 17.3946 14.014 17.5709C13.961 17.7473 14.0614 17.9329 14.2377 17.9859C15.3081 18.3066 16.449 18.534 17.6344 18.6626C17.6617 18.6653 17.7174 18.6666 17.7254 18.6666C17.9778 18.6656 18.2144 18.5666 18.3921 18.3876C18.5697 18.2083 18.6671 17.9703 18.6661 17.7183L18.6664 15C18.6664 14.816 18.5171 14.6667 18.333 14.6667Z" fill="black"/>
</g>
<defs>
<clipPath id="clip0">
<rect width="20" height="20" fill="white"/>
</clipPath>
</defs>
</svg>
